<?xml version="1.0" encoding="utf-8"?>
<!-- Generator: Adobe Illustrator 22.0.0, SVG Export Plug-In . SVG Version: 6.00 Build 0)  -->
<svg version="1.1" id="Layer_1" xmlns="http://www.w3.org/2000/svg" xmlns:xlink="http://www.w3.org/1999/xlink" x="0px" y="0px"
	 viewBox="0 0 3000 2000" style="enable-background:new 0 0 3000 2000;" xml:space="preserve">
<style type="text/css">
	.st0{fill:#FFFFFF;}
	.st1{fill:#231F20;}
	.st2{fill:#FED600;}
</style>
<path class="st0" d="M2811.6,726.5c-25.4-67.9-64.9-127.4-117.4-177.1c-51.9-49-114-86.2-184.6-110.4
	c-61.7-21.1-128.2-31.8-197.7-31.8c-10.2,0-20.5,0.2-30.7,0.7c-50.9,2.3-101.7,11.1-150.9,26.3c-47.9,14.9-93.6,35.5-135.7,61.3
	c-6.3,3.9-12.5,7.9-18.1,11.6l0-0.1c-20.5,13.6-41,27.2-61.6,40.7c-22.6,15-45.3,30-67.9,45c-16.8-29.5-38.1-55.7-63.4-77.9
	c-29-25.7-62.3-45.2-98.9-58.2C1652,444.9,1617.4,439,1582,439c-4.8,0-9.6,0.1-14.3,0.3c-21.1,0.9-42.2,3.9-62.8,9
	c-19.9,4.9-39.7,11.8-58.5,20.5c-19.3,9.1-37,19.6-52.9,31.2c-3.9,2.9-7.7,5.8-11.5,8.9c-5.1-3.2-9.3-5.9-11.8-7.5
	c-16.5-10.7-34.3-19.8-52.7-26.9c-18.5-7.2-37.7-12.5-57-15.7c-15.5-2.5-31.4-3.9-47.1-3.9h0c-3.9,0-7.8,0.1-11.7,0.3
	c-32.8,1.4-64.4,8.3-94.2,20.4c-6.3,2.6-12.5,5.5-18.8,8.5L564.2,287.8l-0.7-0.4l-3.2-1.1l-0.6-0.2l-0.5-0.2l-0.1,0.1
	c-2.5-1-5.4-2.1-8.6-3.2c-23.9-8-48.6-12-73.3-12c-5.2,0-10.4,0.2-15.6,0.6c-35.8,2.4-69.8,13-100.9,31.4
	c-29.3,17.3-54.7,40.5-75.5,69.1c-20.3,27.6-35.4,59.4-44.6,94.2c-9.4,35.4-12.4,72-8.9,108.8l47.9,520.5
	c3.2,34.9,12.4,69.1,27.5,101.7c14.6,31.5,33.8,59.9,57.1,84.4c23.7,25,50.7,45.1,80,59.8c31.4,15.7,64.4,24.4,98,25.9
	c3.4,0.2,6.8,0.3,10.1,0.3c14.2,0,28.3-1.5,41.9-4.3c16.1-3.2,32.2-8.6,47.6-15.9l0.2-0.1l0.2,0c2-1,3.8-2,5.6-2.9v0.1
	c12.3-6.3,24.6-12.6,36.8-18.9l2.6-1.3h0l0.2,0.1c14.6,11,30,20.5,45.6,28.4c16.2,8.1,33.4,14.8,51,19.6c18.1,4.9,36.9,7.9,55.6,8.8
	c4,0.2,7.9,0.3,11.7,0.3c28.3,0,55.9-4.8,81.9-14.3c20.7-7.5,40.6-18,58.9-31.5c0.8-0.5,1.6-1.1,2.4-1.7l64-47.9l24.1-18
	c27.8,27.4,58.8,51.7,92.1,72.4c34.2,21.2,70.5,38.2,107.8,50.4c38.8,12.8,78.3,20.2,117.4,22c6.5,0.3,13.3,0.5,19.8,0.5
	c39.3,0,79.1-5.4,118.1-16.1c44.6-12.1,87.7-31,128.1-56c19.9-12.5,38.9-26.2,56.7-41.1c5,31,10,62,15,93.1c0.3,1.8,0.6,4.2,1.1,6.6
	c3.8,23.1,10.4,46,19.8,68c15.3,35.6,37.2,67.7,65.2,95.5c27.6,27.6,60.2,50,97,66.6c37.6,17,78.4,27.2,121.1,30l233.5,7.7l1.7,0
	h1.8c68.1-0.3,135.2-3.4,197.8-25.7c62.5-22.1,119.7-54.4,169.9-95.8c51.8-43,93.4-93.4,123.9-149.8
	c32.6-60.2,51.2-125.1,55.6-192.9l16.7-254C2848.3,870.4,2837.7,795.4,2811.6,726.5"/>
<path class="st1" d="M2775.2,740.3L2775.2,740.3c-23.5-62.7-60.2-117.6-107.8-162.6c-47.3-44.8-105-79.4-170.5-101.9
	c-56.7-19.4-119-29.7-185.1-29.7c-9.6,0-19.2,0.2-28.9,0.6c-48.4,2.1-95.9,10.6-141.1,24.6c-44.9,13.9-87.5,33.2-126.9,57.3
	c-5.8,3.5-11.4,7.3-16.9,10.9l0-0.1h0c0,0.1-0.2,0.1-0.3,0.2c-55.6,36.8-111.3,73.7-166.8,110.5c-3.3-9.1-7-18-11.4-26.7
	c-15.4-30.4-36.2-57.3-61.4-79.4c-24.9-22.1-54.1-39.4-86.1-50.8c-28.1-10-58.3-15.4-89.7-15.4c-4.2,0-8.4,0.1-12.6,0.3
	c-18.8,0.8-37.3,3.4-55.2,7.9c-17.9,4.4-35.1,10.4-51.5,18.1c-16.4,7.7-31.9,16.7-46.3,27.3c-10.9,8-21,16.8-30.4,26.3
	c-12.2-7.8-24.5-15.6-36.8-23.5c-0.3-0.2-0.7-0.4-0.9-0.6h-0.1c-14.1-9.1-29.2-16.7-44.8-22.8c-15.8-6.2-32.4-10.7-49.3-13.5
	c-13.4-2.2-27-3.4-40.8-3.4c-3.4,0-6.8,0.1-10.2,0.2c-28.7,1.3-56,7.4-81,17.5c-10.6,4.4-20.8,9.5-30.6,15.1L548.8,323.6l-0.4-0.2
	l-0.7-0.2c-0.7-0.2-1.2-0.5-1.9-0.7l-0.1,0c-2.3-0.9-4.7-1.8-7.4-2.7c-19.7-6.6-40.2-10.1-61.1-10.1c-4.3,0-8.6,0.2-12.9,0.5
	c-30.4,2-58.9,11.3-83.9,26c-24.9,14.7-46.4,34.7-63.8,58.6c-17.4,23.7-30.5,51.3-38.5,81.2c-5.8,22-8.9,45.3-8.9,69.4
	c0,8.5,0.4,17.1,1.2,25.8l48,520.5c2.9,31.4,11.4,61.5,24.1,89c12.7,27.5,29.6,52.5,50,73.9c20.3,21.3,43.6,39,69.2,51.7
	c25.7,12.8,53.6,20.6,82.4,22c2.8,0.1,5.5,0.1,8.3,0.1c11.6,0,23-1.1,34-3.4c13.6-2.7,26.7-7.2,39-13c1.6-0.8,3.2-1.6,4.7-2.4l0.1,0
	h0l0,0c20.8-10.6,41.5-21.3,62.2-31.9c6,5.3,12,10.5,18.4,15.3c12.6,9.5,25.8,17.8,39.8,24.7c13.9,7,28.5,12.7,43.7,16.9
	c15.2,4.1,31,6.7,47.3,7.5c3.3,0.1,6.6,0.2,9.8,0.2c24.3,0,47.2-4.2,68.6-11.9c18.4-6.6,35.3-15.9,50.6-27.4v0
	c0.2-0.2,0.5-0.3,0.5-0.4c38.8-29,77.6-58.1,116.4-87c6.7,7.7,13.5,15.6,21.1,23.1c26.2,25.9,55.4,49,86.7,68.4
	c31.3,19.4,64.7,35.1,99.4,46.5c34.8,11.4,70.8,18.4,107.2,20.1c6,0.3,12,0.4,18,0.4c36.4,0,72.7-5.1,107.8-14.7
	c41.4-11.3,81.1-28.8,118-51.6c37.1-23.1,70.9-51.6,100.1-84.6c1.1-1.3,2.3-2.6,3.4-3.9c9,56,18.1,112,27.2,168
	c0.2,1.6,0.5,3.3,0.8,5.1c3.3,20.9,9.3,40.9,17.3,59.8c13.4,31,32.8,59.2,56.9,83.3c24.1,24,53.1,44,85.6,58.7
	c32.6,14.7,69,24.1,107.7,26.7l233.8,7.6h0.3c64.4-0.3,127.6-3,185-23.5c58.5-20.8,112-51,158.2-89.1
	c46.7-38.8,85.9-85.4,114.5-138.4c28.9-53.5,46.9-113.3,51-176.9l16.8-254c0.8-12.2,1.1-24.2,1.1-36
	C2805.5,849.8,2795,792.6,2775.2,740.3"/>
<path class="st2" d="M1751,684.5c-10.1-23.1-24.5-43.8-42.4-61.1c-17.9-17.2-39-31.1-62.3-40.3c-23.2-9.2-48.4-13.8-74.5-12.8h-4.4
	c-56.9,3.7-173.9,48.5-173.9,208.8c0,0,0,8.6-4,8.8c-4.9,0.2-5.3-7.3-5.3-7.3c0-33.9-2.7-61.4-8.4-85.8c-4.8-14-11.2-27.4-19-39.8
	c-10.6-16.8-23.9-31.9-39.1-44.3c-15.2-12.5-32.2-22.3-51-28.9c-18.5-6.5-38.5-9.8-59.4-9c-24.5,0.9-47.4,7-68,17.3
	c-20.4,10.2-38.5,24.4-53.5,41.5c-14.7,17.1-26.4,37.2-34,59.1c-7.7,21.8-11.3,45.4-10.1,69.9l9,197.8
	c2.1,44.7,14.4,87.6,34.2,126.9c19.9,39.3,47.4,75.1,79.8,105.5c32.5,30.5,70.2,55.9,110.4,74.1c40.6,18.3,83.7,29.3,126.7,31
	c44,1.8,88.4-5.8,130.3-21c42.5-15.5,82.4-38.7,116.8-68.4c34.8-29.9,64.2-66.1,84.9-106.8c21-41.2,32.9-86.8,32.9-134.9l0-216.5
	C1766.6,721.8,1761.1,707.5,1751,684.5"/>
<path d="M633.1,556c-0.1-0.8-0.2-1.5-0.2-2.3c0.2,2.1,0.4,4.3,0.6,6.7L633.1,556z"/>
<path class="st2" d="M989.5,1104.7l-11.1-222.9c-2.2-45.1-12.8-87.5-29.8-125.8c-17.2-38.4-40.9-72.6-69.5-101.4
	c-28.5-28.7-61.8-51.8-98.2-68.1c-28.2-12.7-58.1-21.2-88.9-25.2c-16.3,22.5-28.7,52-35.2,91.7c0,0-3.8,23.6-4.4,60.1
	c0,0,0.6,7-3.9,7c-4.5,0.1-4.5-6.2-4.5-6.2c-2.2-44.2-4.3-76.3-6.1-100.6l-4.4-52.8c-0.2-2.5-0.4-4.7-0.6-6.7
	c-1.8-23.2-7.3-45.1-16-64.9c-8.9-20.4-21.1-38.5-35.6-53.4c-14.6-14.9-31.6-26.6-50.4-34.2c-18.5-7.6-39-11.2-60-9.9
	c-21.1,1.2-40.8,7.2-58.2,16.9c-17.3,9.6-32.6,22.9-44.9,38.9c-12.2,16-21.7,34.6-27.3,55.2c-5.9,20.5-8,42.7-5.9,66l46.5,523.8
	c1.9,22,7.9,43.1,16.8,62.3c8.9,19.3,21,36.8,35.4,51.6c14.2,14.9,30.7,27.1,48.7,35.8c18.1,8.8,37.6,14,57.6,14.9
	c17.3,0.6,33.6-2.1,48.5-7.6c14.9-5.6,28.5-14,40.2-24.6c8.6-7.7,16.1-16.7,22.4-26.7c15.7-30.3,25.1-69,23.2-118c0,0-0.9-6,3.6-6.1
	c4.5-0.1,4,5.8,4,5.8c1.4,36.5,13,91.6,22.7,108.4c9.4,16.3,21.6,28.9,35.4,40.5c13.7,11.7,29.3,21.3,45.9,28.1
	c16.7,6.8,34.5,11.1,52.9,11.8c21.6,0.8,42.1-3,60.6-10.8c18.5-7.8,35.1-19.5,48.9-34.2c13.9-14.8,24.8-32.6,32.1-52.8
	C987.3,1150.5,990.8,1128.2,989.5,1104.7"/>
<path class="st2" d="M2681.3,775.8c-19-51.1-48.4-95.6-86.8-131.9c-38-36.2-84.5-64.1-137.8-82.4c-52.7-18.3-111.9-26.8-175.3-24.4
	c-74.5,2.7-138.4,20.9-192,48.7c-53,27.5-96.3,64.4-130.2,105.3c-33.7,40.6-58.3,85-74.6,128.3c-16.2,43-24.2,84.9-24.3,120.9
	c-0.1,20,0,39.3,1.2,57.9c1.1,18.4,3.1,36.3,6.7,53.6c3.7,17.4,9,34.1,16.5,50.7c4.3,9.4,9.3,18.7,15.1,28c1.8,3,3.7,5.9,5.7,8.8
	c23.5-14.9,64.8-35.4,112.5-32.6c2.7,0.1,5.4,0.3,8.1,0.6c15.8,1.8,32.2,6.4,48.8,14.4c9,4.3,23.8,13.2,33.6,20.5
	c2,1.5,5.2,4,3.7,6.6c-1.6,2.8-4.7,2.4-6.8,1.6c-12.5-5.4-39.6-8.7-51.6-8.3c-28.8,1-55.8,4.7-80,14.8
	c-24.3,10.1-45.9,25.2-63.8,44.2c-17.7,18.9-31.9,41.7-41.7,67.6c-9.7,25.8-15,54.7-15.2,85.7c-0.1,25.1,5.1,49.1,14.6,70.9
	c9.6,22,23.5,42,40.9,59.2c17.5,17.2,38.3,31.5,61.6,41.9c23.4,10.4,49.3,17,77.1,18.7l232,14.3c51.9,3.3,102.2-4.5,148.9-21.1
	c47.2-16.9,90.6-42.8,128.2-75.5c37.8-33.1,69.6-73.3,92.6-118.1c23.3-45.2,37.8-95.2,41-147l15.1-252
	C2708.6,884,2700.2,826.7,2681.3,775.8 M2316.4,973.1c-2,16.2-13.9,31.7-31.4,31.8h-7.9c-17.4,0.2-31.6-13.8-31.7-31.3l-0.1-24.7
	c-0.2-17.4,13.9-31.6,31.3-31.8l11.3,0c17.4-0.2,31.2,11,31.3,28.4C2319.1,945.5,2318.4,956.9,2316.4,973.1"/>
</svg>
